<?xml version="1.0" standalone="no"?>
<!DOCTYPE svg PUBLIC "-//W3C//DTD SVG 20010904//EN"
 "http://www.w3.org/TR/2001/REC-SVG-20010904/DTD/svg10.dtd">
<svg version="1.0" xmlns="http://www.w3.org/2000/svg"
 width="760.000000pt" height="1080.000000pt" viewBox="0 0 760.000000 1080.000000"
 preserveAspectRatio="xMidYMid meet">

<g transform="translate(0.000000,1080.000000) scale(0.100000,-0.100000)"
fill="#000000" stroke="none">
<path d="M3607 7302 c-21 -3 -27 -8 -23 -20 4 -12 -12 -29 -57 -59 -64 -44
-87 -52 -87 -31 0 7 -16 -3 -35 -22 -19 -19 -35 -37 -35 -40 0 -14 181 88 227
127 26 23 46 43 43 45 -3 2 -18 2 -33 0z"/>
<path d="M3847 7286 c-20 -8 -52 -25 -70 -39 -18 -13 -46 -27 -63 -31 -21 -5
-33 -15 -41 -36 -9 -23 -18 -30 -40 -31 -20 -1 -15 -4 16 -9 45 -7 107 12 96
30 -8 13 16 26 69 39 27 7 81 30 120 51 l71 40 -60 -1 c-33 0 -77 -6 -98 -13z
m83 -5 c0 -14 -91 -49 -112 -43 -25 6 -13 18 37 36 46 17 75 20 75 7z"/>
<path d="M3520 7271 c-19 -11 -44 -29 -55 -41 -14 -16 -2 -11 40 15 70 44 71
45 59 45 -5 -1 -25 -9 -44 -19z"/>
<path d="M4171 7229 c-13 -5 -38 -16 -55 -24 -17 -8 -38 -13 -46 -12 -8 1 -17
-2 -19 -8 -13 -33 -128 -52 -155 -25 -5 5 -17 10 -26 10 -27 -1 32 -39 70 -45
19 -4 44 -10 56 -15 16 -6 25 -2 42 20 19 24 31 28 94 33 86 6 224 55 192 68
-27 11 -124 10 -153 -2z m103 -8 c6 -9 -74 -41 -102 -41 -26 0 -7 35 23 41 46
10 73 10 79 0z"/>
<path d="M3505 7134 l-30 -15 34 6 c18 3 40 5 48 5 8 0 11 5 8 10 -8 13 -24
12 -60 -6z"/>
<path d="M4268 7123 c6 -2 18 -2 25 0 6 3 1 5 -13 5 -14 0 -19 -2 -12 -5z"/>
<path d="M3725 7110 c-8 -13 38 -52 78 -67 51 -18 177 -14 177 7 0 6 -44 30
-55 30 -2 0 -2 -7 2 -17 6 -14 -1 -15 -58 -11 -71 6 -143 35 -118 48 8 4 43 4
78 -1 67 -9 78 -8 66 10 -8 14 -162 15 -170 1z"/>
<path d="M4200 7105 c7 -8 17 -15 22 -15 5 0 3 7 -6 15 -8 8 -18 15 -22 15 -3
0 -1 -7 6 -15z"/>
<path d="M4385 7111 c17 -4 29 -13 27 -20 -2 -10 4 -12 20 -7 13 3 30 6 38 7
23 2 -62 28 -90 27 -22 0 -22 -1 5 -7z"/>
<path d="M3350 7090 c0 -5 9 -10 20 -10 11 0 20 5 20 10 0 6 -9 10 -20 10 -11
0 -20 -4 -20 -10z"/>
<path d="M3548 7073 c6 -2 18 -2 25 0 6 3 1 5 -13 5 -14 0 -19 -2 -12 -5z"/>
<path d="M3426 7062 c-10 -17 18 -39 60 -48 34 -6 120 9 169 30 l30 13 -29 8
c-21 6 -31 4 -37 -8 -11 -18 -102 -32 -147 -22 -17 3 -32 14 -34 23 -3 13 -5
14 -12 4z"/>
<path d="M4050 7061 c0 -18 70 -70 103 -76 55 -11 122 -11 125 0 2 6 -6 16
-18 24 -18 12 -20 12 -14 -3 6 -16 1 -17 -42 -11 -60 9 -134 42 -134 61 0 8
-4 14 -10 14 -5 0 -10 -4 -10 -9z"/>
<path d="M4180 7040 c8 -5 20 -10 25 -10 6 0 3 5 -5 10 -8 5 -19 10 -25 10 -5
0 -3 -5 5 -10z"/>
<path d="M2722 6703 c-63 -25 -114 -267 -82 -384 12 -44 55 -95 93 -108 l27
-11 2 -232 c1 -128 3 -271 4 -318 1 -47 2 -174 3 -282 1 -155 4 -198 14 -198
10 0 13 101 12 520 l0 520 -22 0 c-35 0 -80 54 -98 117 -27 91 -10 260 31 325
21 33 29 38 62 38 71 0 102 -59 109 -210 4 -88 1 -115 -16 -169 -12 -36 -29
-74 -39 -84 -16 -19 -16 -20 4 -9 35 18 73 70 81 110 4 20 7 78 7 128 -1 105
-21 172 -68 222 -25 26 -37 32 -70 31 -23 0 -47 -3 -54 -6z"/>
<path d="M4969 6693 c-1 -10 -1 -22 0 -27 4 -20 -20 -281 -30 -329 -11 -53
-35 -90 -52 -84 -9 3 -10 104 -3 401 1 22 -4 41 -10 43 -7 2 -13 -50 -19 -164
-13 -306 -13 -306 -49 -280 -27 20 -35 83 -36 269 0 149 -7 197 -24 169 -3 -5
-6 -90 -6 -190 -1 -212 6 -243 60 -267 l37 -16 -5 -468 c-5 -458 -1 -573 19
-553 6 6 12 164 15 379 3 203 7 396 9 429 1 33 3 94 4 136 1 75 1 76 37 100
58 38 74 105 74 307 0 101 -4 162 -10 162 -5 0 -11 -8 -11 -17z"/>
<path d="M3611 6526 c-5 -13 -15 -42 -21 -65 l-11 -41 -165 0 c-183 0 -212 -7
-239 -60 -22 -42 -23 -806 -1 -849 33 -63 8 -61 636 -61 628 0 603 -2 636 61
22 43 21 807 -1 849 -15 30 -61 60 -90 60 -12 0 -15 12 -15 53 0 29 -5 58 -12
65 -7 7 -42 12 -88 12 -46 0 -81 -5 -88 -12 -7 -7 -12 -36 -12 -65 l0 -53 -49
0 -49 0 -19 63 -19 62 -192 3 -192 2 -9 -24z m389 -66 c61 -196 69 -230 55
-230 -3 0 -27 16 -54 35 -119 86 -263 85 -383 -1 -28 -19 -53 -33 -56 -30 -8
8 37 175 73 274 3 10 44 12 176 10 l172 -3 17 -55z m305 10 l0 -45 -65 0 -65
0 -3 33 c-6 58 1 63 70 60 l63 -3 0 -45z m-746 -94 c6 -4 9 -12 5 -17 -3 -6
-18 -54 -33 -107 l-28 -97 -156 -3 -157 -3 0 99 c0 105 8 124 55 135 31 7 301
1 314 -7z m852 -12 c17 -16 19 -28 17 -113 l-3 -96 -154 0 -154 0 -27 95 c-15
52 -29 101 -31 109 -6 22 37 27 194 25 117 -1 140 -4 158 -20z m-468 -98 c57
-27 124 -91 154 -146 75 -137 51 -327 -56 -442 -92 -101 -243 -131 -363 -74
-72 34 -148 117 -177 193 -25 67 -28 184 -6 258 35 115 131 206 249 236 50 13
143 1 199 -25z m-463 -158 c0 -7 -7 -35 -15 -62 -32 -106 -9 -248 55 -341 147
-213 433 -213 580 0 64 93 87 235 55 341 -24 79 -32 75 128 72 l142 -3 3 -289
c2 -246 0 -292 -13 -313 l-15 -23 -590 0 -589 0 -15 22 c-14 19 -16 66 -16
309 0 157 3 289 7 292 3 4 69 7 145 7 104 0 138 -3 138 -12z"/>
<path d="M3704 6214 c-192 -92 -232 -350 -80 -500 109 -106 248 -111 360 -13
93 82 130 226 87 340 -61 162 -228 241 -367 173z m212 -32 c195 -101 191 -397
-6 -498 -23 -12 -57 -18 -100 -18 -143 0 -250 115 -250 268 0 200 191 333 356
248z"/>
<path d="M3830 6087 c0 -7 15 -20 32 -28 44 -19 78 -72 78 -121 0 -27 4 -38
13 -36 36 12 9 110 -44 161 -40 37 -79 49 -79 24z"/>
<path d="M3335 6500 c-12 -19 10 -32 51 -28 27 2 39 8 39 18 0 19 -79 27 -90
10z"/>
</g>
</svg>
